<mxfile host="app.diagrams.net" modified="2021-08-13T15:20:33.202Z" agent="5.0 (Macintosh; Intel Mac OS X 10_15_7) AppleWebKit/537.36 (KHTML, like Gecko) Chrome/92.0.4515.131 Safari/537.36" etag="TnczaV5QounihE18I-Tz" version="14.9.6" type="github">
  <diagram id="rSCKA-bkr5m4F_h_cu3J" name="Page-1">
    <mxGraphModel dx="1238" dy="1692" grid="1" gridSize="10" guides="1" tooltips="1" connect="1" arrows="1" fold="1" page="1" pageScale="1" pageWidth="827" pageHeight="1169" math="0" shadow="0">
      <root>
        <mxCell id="0" />
        <mxCell id="1" parent="0" />
        <mxCell id="LjnM40BAQB9DNAEkESm5-1" value="Person.prototype" style="rounded=1;whiteSpace=wrap;html=1;" vertex="1" parent="1">
          <mxGeometry x="340" y="220" width="120" height="60" as="geometry" />
        </mxCell>
        <mxCell id="LjnM40BAQB9DNAEkESm5-2" value="" style="rounded=1;whiteSpace=wrap;html=1;" vertex="1" parent="1">
          <mxGeometry x="340" y="220" width="120" height="60" as="geometry" />
        </mxCell>
        <mxCell id="LjnM40BAQB9DNAEkESm5-51" value="" style="edgeStyle=orthogonalEdgeStyle;rounded=0;orthogonalLoop=1;jettySize=auto;html=1;" edge="1" parent="1" source="LjnM40BAQB9DNAEkESm5-3" target="LjnM40BAQB9DNAEkESm5-47">
          <mxGeometry relative="1" as="geometry" />
        </mxCell>
        <mxCell id="LjnM40BAQB9DNAEkESm5-68" value="" style="edgeStyle=orthogonalEdgeStyle;rounded=0;orthogonalLoop=1;jettySize=auto;html=1;" edge="1" parent="1" source="LjnM40BAQB9DNAEkESm5-3">
          <mxGeometry relative="1" as="geometry">
            <mxPoint x="280" y="250" as="targetPoint" />
          </mxGeometry>
        </mxCell>
        <mxCell id="LjnM40BAQB9DNAEkESm5-69" value="cons" style="edgeLabel;html=1;align=center;verticalAlign=middle;resizable=0;points=[];" vertex="1" connectable="0" parent="LjnM40BAQB9DNAEkESm5-68">
          <mxGeometry x="-0.1407" y="1" relative="1" as="geometry">
            <mxPoint as="offset" />
          </mxGeometry>
        </mxCell>
        <mxCell id="LjnM40BAQB9DNAEkESm5-3" value="Person" style="rounded=1;whiteSpace=wrap;html=1;" vertex="1" parent="1">
          <mxGeometry x="340" y="220" width="120" height="60" as="geometry" />
        </mxCell>
        <mxCell id="LjnM40BAQB9DNAEkESm5-4" value="Person.prototype" style="rounded=1;whiteSpace=wrap;html=1;" vertex="1" parent="1">
          <mxGeometry x="340" y="50" width="120" height="60" as="geometry" />
        </mxCell>
        <mxCell id="LjnM40BAQB9DNAEkESm5-5" value="" style="shape=flexArrow;endArrow=classic;startArrow=classic;html=1;entryX=0.5;entryY=1;entryDx=0;entryDy=0;" edge="1" parent="1" target="LjnM40BAQB9DNAEkESm5-4">
          <mxGeometry width="100" height="100" relative="1" as="geometry">
            <mxPoint x="400" y="210" as="sourcePoint" />
            <mxPoint x="460" y="120" as="targetPoint" />
          </mxGeometry>
        </mxCell>
        <mxCell id="LjnM40BAQB9DNAEkESm5-6" value="prototype" style="text;html=1;align=center;verticalAlign=middle;resizable=0;points=[];autosize=1;strokeColor=none;" vertex="1" parent="1">
          <mxGeometry x="405" y="140" width="70" height="20" as="geometry" />
        </mxCell>
        <mxCell id="LjnM40BAQB9DNAEkESm5-8" value="constructor" style="text;html=1;align=center;verticalAlign=middle;resizable=0;points=[];autosize=1;strokeColor=none;" vertex="1" parent="1">
          <mxGeometry x="315" y="150" width="70" height="20" as="geometry" />
        </mxCell>
        <mxCell id="LjnM40BAQB9DNAEkESm5-9" value="var mP = new Person()&lt;br&gt;// -------------------------&lt;br&gt;Man.prototype = new&lt;br&gt;Persoh()" style="rounded=1;whiteSpace=wrap;html=1;align=left;" vertex="1" parent="1">
          <mxGeometry x="340" y="380" width="120" height="60" as="geometry" />
        </mxCell>
        <mxCell id="LjnM40BAQB9DNAEkESm5-10" value="" style="shape=flexArrow;endArrow=classic;html=1;exitX=0.5;exitY=0;exitDx=0;exitDy=0;entryX=0.5;entryY=1;entryDx=0;entryDy=0;" edge="1" parent="1" source="LjnM40BAQB9DNAEkESm5-9" target="LjnM40BAQB9DNAEkESm5-3">
          <mxGeometry width="50" height="50" relative="1" as="geometry">
            <mxPoint x="380" y="280" as="sourcePoint" />
            <mxPoint x="430" y="230" as="targetPoint" />
          </mxGeometry>
        </mxCell>
        <mxCell id="LjnM40BAQB9DNAEkESm5-11" value="constructor" style="text;html=1;align=center;verticalAlign=middle;resizable=0;points=[];autosize=1;strokeColor=none;" vertex="1" parent="1">
          <mxGeometry x="414" y="320" width="70" height="20" as="geometry" />
        </mxCell>
        <mxCell id="LjnM40BAQB9DNAEkESm5-21" value="" style="shape=flexArrow;endArrow=classic;html=1;exitX=1;exitY=0.5;exitDx=0;exitDy=0;endWidth=17;endSize=2.73;width=10;entryX=1;entryY=0.5;entryDx=0;entryDy=0;" edge="1" parent="1" source="LjnM40BAQB9DNAEkESm5-9" target="LjnM40BAQB9DNAEkESm5-4">
          <mxGeometry width="50" height="50" relative="1" as="geometry">
            <mxPoint x="460" y="420" as="sourcePoint" />
            <mxPoint x="510" y="60" as="targetPoint" />
            <Array as="points">
              <mxPoint x="530" y="410" />
              <mxPoint x="530" y="80" />
              <mxPoint x="520" y="80" />
            </Array>
          </mxGeometry>
        </mxCell>
        <mxCell id="LjnM40BAQB9DNAEkESm5-23" value="__proto__" style="text;html=1;align=center;verticalAlign=middle;resizable=0;points=[];autosize=1;strokeColor=none;" vertex="1" parent="1">
          <mxGeometry x="525" y="200" width="70" height="20" as="geometry" />
        </mxCell>
        <mxCell id="LjnM40BAQB9DNAEkESm5-25" value="" style="shape=flexArrow;endArrow=classic;html=1;exitX=0.5;exitY=0;exitDx=0;exitDy=0;" edge="1" parent="1" source="LjnM40BAQB9DNAEkESm5-4">
          <mxGeometry width="50" height="50" relative="1" as="geometry">
            <mxPoint x="380" y="60" as="sourcePoint" />
            <mxPoint x="400" y="-40" as="targetPoint" />
          </mxGeometry>
        </mxCell>
        <mxCell id="LjnM40BAQB9DNAEkESm5-66" style="edgeStyle=orthogonalEdgeStyle;rounded=0;orthogonalLoop=1;jettySize=auto;html=1;entryX=0;entryY=0;entryDx=0;entryDy=0;" edge="1" parent="1" source="LjnM40BAQB9DNAEkESm5-28" target="LjnM40BAQB9DNAEkESm5-47">
          <mxGeometry relative="1" as="geometry">
            <mxPoint x="150" y="-80" as="targetPoint" />
          </mxGeometry>
        </mxCell>
        <mxCell id="LjnM40BAQB9DNAEkESm5-67" value="constructor" style="edgeLabel;html=1;align=center;verticalAlign=middle;resizable=0;points=[];" vertex="1" connectable="0" parent="LjnM40BAQB9DNAEkESm5-66">
          <mxGeometry x="-0.6134" y="-1" relative="1" as="geometry">
            <mxPoint as="offset" />
          </mxGeometry>
        </mxCell>
        <mxCell id="LjnM40BAQB9DNAEkESm5-28" value="Object" style="rounded=1;whiteSpace=wrap;html=1;" vertex="1" parent="1">
          <mxGeometry x="340" y="-110" width="120" height="60" as="geometry" />
        </mxCell>
        <mxCell id="LjnM40BAQB9DNAEkESm5-29" value="" style="shape=flexArrow;endArrow=classic;html=1;entryX=1;entryY=0.5;entryDx=0;entryDy=0;exitX=1;exitY=0.25;exitDx=0;exitDy=0;" edge="1" parent="1" source="LjnM40BAQB9DNAEkESm5-4" target="LjnM40BAQB9DNAEkESm5-32">
          <mxGeometry width="50" height="50" relative="1" as="geometry">
            <mxPoint x="530" y="-80" as="sourcePoint" />
            <mxPoint x="400" y="-200" as="targetPoint" />
            <Array as="points">
              <mxPoint x="530" y="65" />
              <mxPoint x="530" y="-240" />
            </Array>
          </mxGeometry>
        </mxCell>
        <mxCell id="LjnM40BAQB9DNAEkESm5-30" value="null" style="rounded=1;whiteSpace=wrap;html=1;" vertex="1" parent="1">
          <mxGeometry x="340" y="-330" width="120" height="20" as="geometry" />
        </mxCell>
        <mxCell id="LjnM40BAQB9DNAEkESm5-31" value="__proto__" style="text;html=1;align=center;verticalAlign=middle;resizable=0;points=[];autosize=1;strokeColor=none;" vertex="1" parent="1">
          <mxGeometry x="525" y="-180" width="70" height="20" as="geometry" />
        </mxCell>
        <mxCell id="LjnM40BAQB9DNAEkESm5-36" value="" style="edgeStyle=orthogonalEdgeStyle;rounded=0;orthogonalLoop=1;jettySize=auto;html=1;" edge="1" parent="1" source="LjnM40BAQB9DNAEkESm5-32" target="LjnM40BAQB9DNAEkESm5-30">
          <mxGeometry relative="1" as="geometry" />
        </mxCell>
        <mxCell id="LjnM40BAQB9DNAEkESm5-32" value="Object.prototype" style="rounded=1;whiteSpace=wrap;html=1;" vertex="1" parent="1">
          <mxGeometry x="340" y="-270" width="120" height="60" as="geometry" />
        </mxCell>
        <mxCell id="LjnM40BAQB9DNAEkESm5-41" value="" style="shape=flexArrow;endArrow=classic;startArrow=classic;html=1;entryX=0.5;entryY=1;entryDx=0;entryDy=0;" edge="1" parent="1">
          <mxGeometry width="100" height="100" relative="1" as="geometry">
            <mxPoint x="399.5" y="-110" as="sourcePoint" />
            <mxPoint x="399.5" y="-210" as="targetPoint" />
          </mxGeometry>
        </mxCell>
        <mxCell id="LjnM40BAQB9DNAEkESm5-42" value="&lt;meta charset=&quot;utf-8&quot;&gt;&lt;span style=&quot;color: rgb(0, 0, 0); font-family: helvetica; font-size: 12px; font-style: normal; font-weight: 400; letter-spacing: normal; text-align: center; text-indent: 0px; text-transform: none; word-spacing: 0px; background-color: rgb(248, 249, 250); display: inline; float: none;&quot;&gt;prototype&lt;/span&gt;" style="text;whiteSpace=wrap;html=1;" vertex="1" parent="1">
          <mxGeometry x="410" y="-170" width="80" height="30" as="geometry" />
        </mxCell>
        <mxCell id="LjnM40BAQB9DNAEkESm5-43" value="&lt;meta charset=&quot;utf-8&quot;&gt;&lt;span style=&quot;color: rgb(0, 0, 0); font-family: helvetica; font-size: 12px; font-style: normal; font-weight: 400; letter-spacing: normal; text-align: center; text-indent: 0px; text-transform: none; word-spacing: 0px; background-color: rgb(248, 249, 250); display: inline; float: none;&quot;&gt;constructor&lt;/span&gt;" style="text;whiteSpace=wrap;html=1;" vertex="1" parent="1">
          <mxGeometry x="310" y="-160" width="80" height="30" as="geometry" />
        </mxCell>
        <mxCell id="LjnM40BAQB9DNAEkESm5-44" value="construcotr本来&lt;br&gt;指向Object，但是&lt;br&gt;被修正为Person." style="text;html=1;align=left;verticalAlign=middle;resizable=0;points=[];autosize=1;strokeColor=none;" vertex="1" parent="1">
          <mxGeometry x="405" y="-15" width="110" height="50" as="geometry" />
        </mxCell>
        <mxCell id="LjnM40BAQB9DNAEkESm5-45" value="&lt;div style=&quot;text-align: left&quot;&gt;&lt;span style=&quot;font-size: 12px&quot;&gt;function Person() {}&lt;/span&gt;&lt;/div&gt;&lt;div style=&quot;text-align: left&quot;&gt;&lt;span style=&quot;font-size: 12px&quot;&gt;Person.prototype = new Object();&lt;/span&gt;&lt;/div&gt;&lt;div style=&quot;text-align: left&quot;&gt;&lt;span style=&quot;font-size: 12px&quot;&gt;Person.prototype.constructor = Person;&lt;br&gt;这一步自动做了&lt;/span&gt;&lt;/div&gt;" style="text;html=1;align=center;verticalAlign=middle;resizable=0;points=[];autosize=1;strokeColor=none;" vertex="1" parent="1">
          <mxGeometry x="190" y="-10" width="220" height="60" as="geometry" />
        </mxCell>
        <mxCell id="LjnM40BAQB9DNAEkESm5-50" value="" style="edgeStyle=orthogonalEdgeStyle;rounded=0;orthogonalLoop=1;jettySize=auto;html=1;" edge="1" parent="1" source="LjnM40BAQB9DNAEkESm5-47" target="LjnM40BAQB9DNAEkESm5-48">
          <mxGeometry relative="1" as="geometry" />
        </mxCell>
        <mxCell id="LjnM40BAQB9DNAEkESm5-47" value="Function" style="rounded=1;whiteSpace=wrap;html=1;" vertex="1" parent="1">
          <mxGeometry x="160" y="220" width="130" height="60" as="geometry" />
        </mxCell>
        <mxCell id="LjnM40BAQB9DNAEkESm5-70" style="edgeStyle=orthogonalEdgeStyle;rounded=0;orthogonalLoop=1;jettySize=auto;html=1;entryX=0;entryY=0.5;entryDx=0;entryDy=0;" edge="1" parent="1" source="LjnM40BAQB9DNAEkESm5-48" target="LjnM40BAQB9DNAEkESm5-32">
          <mxGeometry relative="1" as="geometry">
            <mxPoint x="60" y="-240" as="targetPoint" />
            <Array as="points">
              <mxPoint x="60" y="-240" />
            </Array>
          </mxGeometry>
        </mxCell>
        <mxCell id="LjnM40BAQB9DNAEkESm5-71" value="__proto__" style="edgeLabel;html=1;align=center;verticalAlign=middle;resizable=0;points=[];" vertex="1" connectable="0" parent="LjnM40BAQB9DNAEkESm5-70">
          <mxGeometry x="0.4384" y="-1" relative="1" as="geometry">
            <mxPoint as="offset" />
          </mxGeometry>
        </mxCell>
        <mxCell id="LjnM40BAQB9DNAEkESm5-72" value="&lt;div style=&quot;text-align: left&quot;&gt;Function的构造&lt;/div&gt;&lt;div style=&quot;text-align: left&quot;&gt;函数是什么？&lt;/div&gt;&lt;div style=&quot;text-align: left&quot;&gt;一切函数都是&lt;/div&gt;&lt;div style=&quot;text-align: left&quot;&gt;new Function出来的&lt;/div&gt;&lt;div style=&quot;text-align: left&quot;&gt;Function又是谁&lt;/div&gt;&lt;div style=&quot;text-align: left&quot;&gt;new出来的&lt;/div&gt;" style="edgeLabel;html=1;align=center;verticalAlign=middle;resizable=0;points=[];" vertex="1" connectable="0" parent="LjnM40BAQB9DNAEkESm5-70">
          <mxGeometry x="-0.1913" y="5" relative="1" as="geometry">
            <mxPoint as="offset" />
          </mxGeometry>
        </mxCell>
        <mxCell id="LjnM40BAQB9DNAEkESm5-48" value="Function.prototype" style="rounded=1;whiteSpace=wrap;html=1;" vertex="1" parent="1">
          <mxGeometry y="220" width="120" height="60" as="geometry" />
        </mxCell>
        <mxCell id="LjnM40BAQB9DNAEkESm5-52" value="" style="shape=flexArrow;endArrow=classic;startArrow=classic;html=1;entryX=0.5;entryY=1;entryDx=0;entryDy=0;" edge="1" parent="1" target="LjnM40BAQB9DNAEkESm5-9">
          <mxGeometry width="100" height="100" relative="1" as="geometry">
            <mxPoint x="400" y="550" as="sourcePoint" />
            <mxPoint x="460" y="440" as="targetPoint" />
          </mxGeometry>
        </mxCell>
        <mxCell id="LjnM40BAQB9DNAEkESm5-53" value="constructor" style="text;html=1;align=center;verticalAlign=middle;resizable=0;points=[];autosize=1;strokeColor=none;" vertex="1" parent="1">
          <mxGeometry x="315" y="470" width="70" height="20" as="geometry" />
        </mxCell>
        <mxCell id="LjnM40BAQB9DNAEkESm5-54" value="prototype" style="text;html=1;align=center;verticalAlign=middle;resizable=0;points=[];autosize=1;strokeColor=none;" vertex="1" parent="1">
          <mxGeometry x="414" y="470" width="70" height="20" as="geometry" />
        </mxCell>
        <mxCell id="LjnM40BAQB9DNAEkESm5-73" style="edgeStyle=orthogonalEdgeStyle;rounded=0;orthogonalLoop=1;jettySize=auto;html=1;" edge="1" parent="1" source="LjnM40BAQB9DNAEkESm5-55">
          <mxGeometry relative="1" as="geometry">
            <mxPoint x="160" y="280" as="targetPoint" />
          </mxGeometry>
        </mxCell>
        <mxCell id="LjnM40BAQB9DNAEkESm5-74" value="constructor" style="edgeLabel;html=1;align=center;verticalAlign=middle;resizable=0;points=[];" vertex="1" connectable="0" parent="LjnM40BAQB9DNAEkESm5-73">
          <mxGeometry x="0.6458" y="5" relative="1" as="geometry">
            <mxPoint as="offset" />
          </mxGeometry>
        </mxCell>
        <mxCell id="LjnM40BAQB9DNAEkESm5-55" value="Man" style="rounded=1;whiteSpace=wrap;html=1;" vertex="1" parent="1">
          <mxGeometry x="340" y="550" width="120" height="65" as="geometry" />
        </mxCell>
        <mxCell id="LjnM40BAQB9DNAEkESm5-56" value="new Man" style="rounded=1;whiteSpace=wrap;html=1;" vertex="1" parent="1">
          <mxGeometry x="340" y="720" width="120" height="60" as="geometry" />
        </mxCell>
        <mxCell id="LjnM40BAQB9DNAEkESm5-57" value="" style="shape=flexArrow;endArrow=classic;html=1;exitX=0.5;exitY=0;exitDx=0;exitDy=0;" edge="1" parent="1" source="LjnM40BAQB9DNAEkESm5-56">
          <mxGeometry width="50" height="50" relative="1" as="geometry">
            <mxPoint x="380" y="700" as="sourcePoint" />
            <mxPoint x="400" y="620" as="targetPoint" />
          </mxGeometry>
        </mxCell>
        <mxCell id="LjnM40BAQB9DNAEkESm5-58" value="constructor" style="text;html=1;align=center;verticalAlign=middle;resizable=0;points=[];autosize=1;strokeColor=none;" vertex="1" parent="1">
          <mxGeometry x="415" y="660" width="70" height="20" as="geometry" />
        </mxCell>
        <mxCell id="LjnM40BAQB9DNAEkESm5-59" value="&lt;div style=&quot;text-align: left&quot;&gt;&lt;span&gt;&lt;br&gt;&lt;/span&gt;&lt;/div&gt;&lt;div style=&quot;text-align: left&quot;&gt;&lt;span&gt;这里也要手动修正一下constructor&lt;/span&gt;&lt;/div&gt;&lt;div style=&quot;text-align: left&quot;&gt;&lt;span&gt;修正之后，Man.prototype和Person&lt;/span&gt;&lt;/div&gt;&lt;div style=&quot;text-align: left&quot;&gt;&lt;span&gt;的指向失去了联系&lt;/span&gt;&lt;/div&gt;" style="text;html=1;align=center;verticalAlign=middle;resizable=0;points=[];autosize=1;strokeColor=none;" vertex="1" parent="1">
          <mxGeometry x="180" y="470" width="200" height="60" as="geometry" />
        </mxCell>
        <mxCell id="LjnM40BAQB9DNAEkESm5-61" value="" style="shape=flexArrow;endArrow=classic;html=1;exitX=1;exitY=0.5;exitDx=0;exitDy=0;width=19;endSize=2.78;entryX=1;entryY=0.75;entryDx=0;entryDy=0;" edge="1" parent="1" source="LjnM40BAQB9DNAEkESm5-56" target="LjnM40BAQB9DNAEkESm5-9">
          <mxGeometry width="50" height="50" relative="1" as="geometry">
            <mxPoint x="470" y="790" as="sourcePoint" />
            <mxPoint x="530" y="420" as="targetPoint" />
            <Array as="points">
              <mxPoint x="530" y="750" />
              <mxPoint x="530" y="590" />
              <mxPoint x="530" y="425" />
            </Array>
          </mxGeometry>
        </mxCell>
        <mxCell id="LjnM40BAQB9DNAEkESm5-63" value="__proto__" style="text;html=1;align=center;verticalAlign=middle;resizable=0;points=[];autosize=1;strokeColor=none;" vertex="1" parent="1">
          <mxGeometry x="535" y="580" width="70" height="20" as="geometry" />
        </mxCell>
      </root>
    </mxGraphModel>
  </diagram>
</mxfile>
